<?xml version="1.0" standalone="no"?>
<!DOCTYPE svg PUBLIC "-//W3C//DTD SVG 20010904//EN"
 "http://www.w3.org/TR/2001/REC-SVG-20010904/DTD/svg10.dtd">
<svg version="1.0" xmlns="http://www.w3.org/2000/svg"
 width="8342.000000pt" height="8342.000000pt" viewBox="0 0 8342.000000 8342.000000"
 preserveAspectRatio="xMidYMid meet">

<g transform="translate(0.000000,8342.000000) scale(0.100000,-0.100000)"
fill="#000000" stroke="none">
<path d="M40 41710 l0 -41670 41670 0 41670 0 0 41670 0 41670 -41670 0
-41670 0 0 -41670z m26377 19492 c5264 -6466 9662 -11871 9774 -12011 461
-579 1021 -1236 2289 -2681 2176 -2482 3047 -3534 3819 -4610 l161 -225 0
-140 c0 -234 -80 -7978 -82 -8007 -3 -25 -430 427 -3533 3733 -1941 2068
-3553 3786 -3580 3816 l-51 56 -10299 -15357 -10299 -15356 -4778 0 c-2628 0
-4778 2 -4778 5 0 3 5486 8099 12192 17992 6705 9893 12192 17994 12192 18003
1 9 -5078 5969 -11285 13246 -6207 7276 -11298 13244 -11313 13262 l-28 32
5014 0 5013 -1 9572 -11757z m50603 8358 l0 -3400 -12880 0 -12880 0 0 -9870
0 -9870 12163 -2 12162 -3 3 -3327 2 -3328 -12130 0 -12130 0 0 -11270 0
-11270 13525 0 13525 0 0 -3400 0 -3400 -17570 0 -17570 0 0 31270 0 31270
16890 0 16890 0 0 -3400z"/>
</g>
</svg>
